<svg width="64" height="64" viewBox="0 0 64 64" fill="none" xmlns="http://www.w3.org/2000/svg">
  <!-- YUR OS Logo - Mandala-inspired infinite symbol -->
  <defs>
    <linearGradient id="yurigradient" x1="0%" y1="0%" x2="100%" y2="100%">
      <stop offset="0%" style="stop-color:#00bcd4;stop-opacity:1" />
      <stop offset="100%" style="stop-color:#ff5722;stop-opacity:1" />
    </linearGradient>
  </defs>
  
  <!-- Outer mandala ring -->
  <circle cx="32" cy="32" r="30" stroke="url(#yurigradient)" stroke-width="2" fill="none" opacity="0.6"/>
  
  <!-- Inner infinity symbol -->
  <path d="M16 32 C16 28, 20 24, 24 24 C28 24, 32 28, 32 32 C32 28, 36 24, 40 24 C44 24, 48 28, 48 32 C48 36, 44 40, 40 40 C36 40, 32 36, 32 32 C32 36, 28 40, 24 40 C20 40, 16 36, 16 32 Z" 
        fill="url(#yurigradient)" opacity="0.9"/>
  
  <!-- Sacred geometry points -->
  <circle cx="32" cy="16" r="2" fill="#00bcd4" opacity="0.8"/>
  <circle cx="47" cy="24" r="2" fill="#00bcd4" opacity="0.8"/>
  <circle cx="47" cy="40" r="2" fill="#ff5722" opacity="0.8"/>
  <circle cx="32" cy="48" r="2" fill="#ff5722" opacity="0.8"/>
  <circle cx="17" cy="40" r="2" fill="#ff5722" opacity="0.8"/>
  <circle cx="17" cy="24" r="2" fill="#00bcd4" opacity="0.8"/>
  
  <!-- Central focus point -->
  <circle cx="32" cy="32" r="3" fill="white" opacity="0.9"/>
</svg>